<svg xmlns="http://www.w3.org/2000/svg" version="1.1" xmlns:xlink="http://www.w3.org/1999/xlink" xmlns:svgjs="http://svgjs.dev/svgjs" width="1500" height="1500" viewBox="0 0 1500 1500"><rect width="1500" height="1500" fill="#ffffff"></rect><g transform="matrix(0.6666666666666666,0,0,0.6666666666666666,248.1914218006139,236.0139784946237)"><svg viewBox="0 0 242 248" data-background-color="#ffffff" preserveAspectRatio="xMidYMid meet" height="1537" width="1500" xmlns="http://www.w3.org/2000/svg" xmlns:xlink="http://www.w3.org/1999/xlink"><g id="tight-bounds" transform="matrix(1,0,0,1,0.43767592425143675,0.4000000000000057)"><svg viewBox="0 0 241.12464815149713 247.2" height="247.2" width="241.12464815149713"><g><svg viewBox="0 0 395.52 405.4854812626625" height="247.2" width="241.12464815149713"><g transform="matrix(1,0,0,1,0,265.96675441134505)"><svg viewBox="0 0 395.52 139.51872685131747" height="139.51872685131747" width="395.52"><g id="textblocktransform"><svg viewBox="0 0 395.52 139.51872685131747" height="139.51872685131747" width="395.52" id="textblock"><g><svg viewBox="0 0 395.52 92.25198571128388" height="92.25198571128388" width="395.52"><g transform="matrix(1,0,0,1,0,0)"><svg width="395.52" viewBox="0.27 -41.19 232.35 54.2" height="92.25198571128388" data-palette-color="#556970"><path d="M29.05-28.2L17.94 0 10.52 0 0.27-28.2 8.52-28.2 16.04-5.74 23.34-28.2 29.05-28.2ZM40.79-32.62L40.79 0 32.54 0 32.54-41.19 35.72-41.19 40.79-32.62ZM77.46-14.16L77.46-14.16Q77.46-11.96 76.87-10.03 76.29-8.11 75.25-6.47 74.21-4.83 72.75-3.53 71.28-2.22 69.54-1.32 67.79-0.42 65.8 0.07 63.81 0.56 61.71 0.56L61.71 0.56Q59.61 0.56 57.64 0.07 55.66-0.42 53.91-1.32 52.17-2.22 50.7-3.53 49.24-4.83 48.2-6.47 47.16-8.11 46.58-10.05 45.99-11.99 45.99-14.16L45.99-14.16Q45.99-16.33 46.58-18.27 47.16-20.21 48.2-21.85 49.24-23.49 50.7-24.79 52.17-26.1 53.91-27 55.66-27.91 57.64-28.39 59.61-28.88 61.71-28.88L61.71-28.88Q63.81-28.88 65.8-28.39 67.79-27.91 69.54-27 71.28-26.1 72.75-24.79 74.21-23.49 75.25-21.85 76.29-20.21 76.87-18.27 77.46-16.33 77.46-14.16ZM69.06-14.16L69.06-14.16Q69.06-15.33 68.93-16.64 68.79-17.94 68.48-19.2 68.16-20.46 67.61-21.62 67.06-22.78 66.25-23.65 65.45-24.51 64.33-25.04 63.2-25.56 61.71-25.56L61.71-25.56Q60.3-25.56 59.2-25.02 58.1-24.49 57.28-23.6 56.46-22.71 55.92-21.53 55.37-20.36 55.02-19.1 54.68-17.85 54.54-16.56 54.39-15.28 54.39-14.16L54.39-14.16Q54.39-13.04 54.54-11.76 54.68-10.47 55.02-9.2 55.37-7.93 55.92-6.77 56.46-5.62 57.28-4.72 58.1-3.83 59.2-3.3 60.3-2.76 61.71-2.76L61.71-2.76Q63.18-2.76 64.3-3.28 65.42-3.81 66.24-4.69 67.06-5.57 67.6-6.71 68.13-7.86 68.46-9.13 68.79-10.4 68.93-11.69 69.06-12.99 69.06-14.16ZM111.05-28.2L111.05-3.39Q111.05-0.02 110.05 2.95 109.05 5.93 107.15 8.17 105.24 10.4 102.47 11.71 99.7 13.01 96.16 13.01L96.16 13.01Q94.21 13.01 92.22 12.57 90.23 12.13 88.46 11.22 86.69 10.3 85.28 8.9 83.88 7.5 83.07 5.59L83.07 5.59 86.64 4.25Q87.1 5.44 87.85 6.45 88.59 7.45 89.57 8.17 90.54 8.89 91.72 9.29 92.89 9.69 94.18 9.69L94.18 9.69Q96.62 9.69 98.27 8.69 99.92 7.69 100.92 6.08 101.92 4.47 102.36 2.43 102.8 0.39 102.8-1.71L102.8-1.71 102.8-3.37Q101.34-1.37 99.27-0.4 97.21 0.56 94.74 0.56L94.74 0.56Q91.52 0.56 88.98-0.59 86.44-1.73 84.68-3.72 82.93-5.71 82-8.4 81.07-11.08 81.07-14.16L81.07-14.16Q81.07-17.24 82-19.92 82.93-22.61 84.68-24.6 86.44-26.59 88.98-27.73 91.52-28.88 94.74-28.88L94.74-28.88Q96.38-28.88 97.86-28.39 99.33-27.91 100.57-27.01 101.8-26.12 102.74-24.87 103.68-23.61 104.22-22.07L104.22-22.07 107.88-28.2 111.05-28.2ZM102.75-14.16L102.75-14.16Q102.75-15.26 102.64-16.48 102.53-17.7 102.26-18.9 101.99-20.09 101.52-21.18 101.04-22.27 100.3-23.11 99.55-23.95 98.5-24.44 97.45-24.93 96.06-24.93L96.06-24.93Q94.67-24.93 93.64-24.43 92.62-23.93 91.89-23.08 91.15-22.24 90.68-21.14 90.2-20.04 89.93-18.85 89.67-17.65 89.56-16.44 89.45-15.23 89.45-14.16L89.45-14.16Q89.45-13.09 89.56-11.87 89.67-10.64 89.93-9.45 90.2-8.25 90.68-7.15 91.15-6.05 91.89-5.21 92.62-4.37 93.64-3.87 94.67-3.37 96.06-3.37L96.06-3.37Q97.33-3.37 98.32-3.89 99.31-4.42 100.05-5.3 100.8-6.18 101.31-7.3 101.82-8.42 102.14-9.62 102.46-10.82 102.6-12 102.75-13.18 102.75-14.16ZM160.49-28.2L160.49 0 152.23 0 152.23-3.37Q150.77-1.37 148.71-0.4 146.64 0.56 144.18 0.56L144.18 0.56Q140.95 0.56 138.42-0.59 135.88-1.73 134.12-3.72 132.36-5.71 131.43-8.4 130.51-11.08 130.51-14.16L130.51-14.16Q130.51-17.24 131.43-19.92 132.36-22.61 134.12-24.6 135.88-26.59 138.42-27.73 140.95-28.88 144.18-28.88L144.18-28.88Q145.81-28.88 147.29-28.39 148.77-27.91 150-27.01 151.23-26.12 152.17-24.87 153.11-23.61 153.65-22.07L153.65-22.07 157.31-28.2 160.49-28.2ZM152.18-14.16L152.18-14.16Q152.18-15.26 152.07-16.48 151.97-17.7 151.7-18.9 151.43-20.09 150.95-21.18 150.48-22.27 149.73-23.11 148.99-23.95 147.94-24.44 146.89-24.93 145.5-24.93L145.5-24.93Q144.1-24.93 143.08-24.43 142.05-23.93 141.32-23.08 140.59-22.24 140.11-21.14 139.64-20.04 139.37-18.85 139.1-17.65 138.99-16.44 138.88-15.23 138.88-14.16L138.88-14.16Q138.88-13.09 138.99-11.87 139.1-10.64 139.37-9.45 139.64-8.25 140.11-7.15 140.59-6.05 141.32-5.21 142.05-4.37 143.08-3.87 144.1-3.37 145.5-3.37L145.5-3.37Q146.76-3.37 147.75-3.89 148.74-4.42 149.49-5.3 150.23-6.18 150.74-7.3 151.26-8.42 151.57-9.62 151.89-10.82 152.04-12 152.18-13.18 152.18-14.16ZM197.35-14.16L197.35-14.16Q197.35-11.08 196.42-8.4 195.49-5.71 193.74-3.72 191.98-1.73 189.44-0.59 186.9 0.56 183.68 0.56L183.68 0.56Q181.21 0.56 179.15-0.4 177.08-1.37 175.62-3.37L175.62-3.37 175.62 13.01 167.37 13.01 167.37-28.2 170.54-28.2 174.2-22.07Q174.74-23.61 175.68-24.87 176.62-26.12 177.85-27.01 179.09-27.91 180.56-28.39 182.04-28.88 183.68-28.88L183.68-28.88Q186.9-28.88 189.44-27.73 191.98-26.59 193.74-24.6 195.49-22.61 196.42-19.92 197.35-17.24 197.35-14.16ZM188.97-14.16L188.97-14.16Q188.97-15.23 188.86-16.44 188.75-17.65 188.49-18.85 188.22-20.04 187.74-21.14 187.27-22.24 186.53-23.08 185.8-23.93 184.76-24.43 183.73-24.93 182.36-24.93L182.36-24.93Q180.94-24.93 179.9-24.44 178.87-23.95 178.12-23.11 177.38-22.27 176.9-21.18 176.43-20.09 176.16-18.9 175.89-17.7 175.78-16.48 175.67-15.26 175.67-14.16L175.67-14.16Q175.67-13.18 175.82-12 175.96-10.82 176.28-9.62 176.6-8.42 177.11-7.3 177.62-6.18 178.37-5.3 179.11-4.42 180.1-3.89 181.09-3.37 182.36-3.37L182.36-3.37Q183.75-3.37 184.78-3.87 185.8-4.37 186.53-5.21 187.27-6.05 187.74-7.15 188.22-8.25 188.49-9.45 188.75-10.64 188.86-11.87 188.97-13.09 188.97-14.16ZM232.62-14.16L232.62-14.16Q232.62-11.08 231.7-8.4 230.77-5.71 229.01-3.72 227.25-1.73 224.71-0.59 222.17 0.56 218.95 0.56L218.95 0.56Q216.49 0.56 214.42-0.4 212.36-1.37 210.9-3.37L210.9-3.37 210.9 13.01 202.64 13.01 202.64-28.2 205.82-28.2 209.48-22.07Q210.02-23.61 210.96-24.87 211.9-26.12 213.13-27.01 214.36-27.91 215.84-28.39 217.32-28.88 218.95-28.88L218.95-28.88Q222.17-28.88 224.71-27.73 227.25-26.59 229.01-24.6 230.77-22.61 231.7-19.92 232.62-17.24 232.62-14.16ZM224.25-14.16L224.25-14.16Q224.25-15.23 224.14-16.44 224.03-17.65 223.76-18.85 223.49-20.04 223.02-21.14 222.54-22.24 221.81-23.08 221.08-23.93 220.04-24.43 219-24.93 217.63-24.93L217.63-24.93Q216.22-24.93 215.18-24.44 214.14-23.95 213.4-23.11 212.65-22.27 212.18-21.18 211.7-20.09 211.43-18.9 211.16-17.7 211.05-16.48 210.94-15.26 210.94-14.16L210.94-14.16Q210.94-13.18 211.09-12 211.24-10.82 211.55-9.62 211.87-8.42 212.38-7.3 212.9-6.18 213.64-5.3 214.39-4.42 215.38-3.89 216.36-3.37 217.63-3.37L217.63-3.37Q219.03-3.37 220.05-3.87 221.08-4.37 221.81-5.21 222.54-6.05 223.02-7.15 223.49-8.25 223.76-9.45 224.03-10.64 224.14-11.87 224.25-13.09 224.25-14.16Z" opacity="1" transform="matrix(1,0,0,1,0,0)" fill="#556970" class="wordmark-text-0" data-fill-palette-color="primary" id="text-0"></path></svg></g></svg></g><g transform="matrix(1,0,0,1,75.54432,114.03046549006093)"><svg viewBox="0 0 244.43135999999998 25.488261361256537" height="25.488261361256537" width="244.43135999999998"><g transform="matrix(1,0,0,1,0,0)"><svg width="244.43135999999998" viewBox="2.2 -34 458.35 47.8" height="25.488261361256537" data-palette-color="#556970"><path d="M3.85 0.5L3.85 0.5Q2.9 0.5 2.55-0.05 2.2-0.6 2.2-1.25L2.2-1.25Q2.2-4.35 2.83-8.35 3.45-12.35 4.35-16.3L4.35-16.3Q5.15-19.65 6.13-22.55 7.1-25.45 7.85-27.3L7.85-27.3Q8.95-29.9 10.38-31.28 11.8-32.65 13.7-32.65L13.7-32.65Q15.1-32.65 16.2-31.73 17.3-30.8 17.5-28.4L17.5-28.4Q17.8-25.5 18.2-22.55 18.6-19.6 19.1-17.18 19.6-14.75 20.15-13.45L20.15-13.45Q20.6-12.3 21.45-12.3L21.45-12.3Q22.4-12.3 23.1-13.5L23.1-13.5Q23.75-14.6 24.5-16.5 25.25-18.4 25.98-20.53 26.7-22.65 27.25-24.4L27.25-24.4Q27.9-26.3 28.73-28.23 29.55-30.15 30.85-31.43 32.15-32.7 34.1-32.7L34.1-32.7Q35.9-32.7 36.68-31.48 37.45-30.25 37.45-27.6L37.45-27.6Q37.45-25.55 37.3-23.3L37.3-23.3Q37.25-22 37.18-20.63 37.1-19.25 37.1-17.8L37.1-17.8Q37.1-15.55 37.33-13.05 37.55-10.55 38.23-8.35 38.9-6.15 40.25-4.65L40.25-4.65Q40.65-4.3 40.98-3.85 41.3-3.4 41.3-2.85L41.3-2.85Q41.3-1.6 39.98-0.58 38.65 0.45 36.95 0.45L36.95 0.45Q35.4 0.45 34.65-0.55 33.9-1.55 33.45-3.25L33.45-3.25Q32.95-5.35 32.75-7.75 32.55-10.15 32.55-12.4L32.55-12.4Q32.55-16 32.83-19.03 33.1-22.05 33.1-23.5L33.1-23.5Q33.1-24.3 32.95-24.68 32.8-25.05 32.2-25.05L32.2-25.05Q31.5-25.05 31.03-24.43 30.55-23.8 30.25-22.7L30.25-22.7Q29.6-20.6 28.8-18.2 28-15.8 27.13-13.5 26.25-11.2 25.25-9.4L25.25-9.4Q24.1-7.3 22.78-6.58 21.45-5.85 20.1-5.85L20.1-5.85Q18-5.85 16.93-7.18 15.85-8.5 15.35-10.1L15.35-10.1Q14.7-12.25 14.15-15.73 13.6-19.2 13.35-23.55L13.35-23.55Q13.25-25.4 12.15-25.4L12.15-25.4Q10.95-25.4 10.25-23.6L10.25-23.6Q9.65-21.8 9.1-19.38 8.55-16.95 8.22-14.33 7.9-11.7 7.9-9.15L7.9-9.15Q7.9-7 8.08-5.4 8.25-3.8 8.25-2.4L8.25-2.4Q8.25-1.4 7.48-0.75 6.7-0.1 5.65 0.2 4.6 0.5 3.85 0.5ZM50.3 0.65L50.3 0.65Q47.3 0.65 45.47-1.23 43.65-3.1 43.65-6.6L43.65-6.6Q43.65-9.1 44.62-11.58 45.6-14.05 47.45-16.05 49.3-18.05 51.9-19.25 54.5-20.45 57.75-20.45L57.75-20.45Q60.75-20.45 62.87-19.43 65-18.4 65-16.65L65-16.65Q65-16.2 64.9-15.48 64.8-14.75 64.65-14.3L64.65-14.3Q64.5-13.9 64.22-13.58 63.95-13.25 63.5-13.25L63.5-13.25Q63.3-13.25 62.75-13.4L62.75-13.4Q62.55-12.35 62.45-11.35 62.35-10.35 62.35-9.35L62.35-9.35Q62.35-7.45 62.92-5.98 63.5-4.5 65.2-4.15L65.2-4.15Q65.65-4.05 65.92-3.85 66.2-3.65 66.2-3L66.2-3Q66.2-2.45 65.92-1.6 65.65-0.75 64.87-0.08 64.1 0.6 62.65 0.6L62.65 0.6Q60.7 0.6 59.65-0.83 58.6-2.25 58.6-4.9L58.6-4.9Q57.25-2.45 55.17-0.9 53.1 0.65 50.3 0.65ZM51.9-4.55L51.9-4.55Q53.9-4.55 55.42-5.8 56.95-7.05 57.8-8.95L57.8-8.95Q58.35-10.15 58.65-11.58 58.95-13 59.05-14.4L59.05-14.4Q58.2-14.8 57.1-15.05 56-15.3 54.8-15.3L54.8-15.3Q51.75-15.3 49.77-13.5 47.8-11.7 47.8-9L47.8-9Q47.8-7 48.9-5.78 50-4.55 51.9-4.55ZM71.2 0.55L71.2 0.55Q70.65 0.55 70.15 0.23 69.65-0.1 69.75-0.65L69.75-0.65Q70.5-4.65 71.02-8.78 71.55-12.9 71.55-17.1L71.55-17.1Q71.55-20.8 71.3-23.8 71.05-26.8 69.7-29.55L69.7-29.55Q69.45-30.1 69.3-30.5 69.15-30.9 69.15-31.25L69.15-31.25Q69.15-32.2 70.25-33.1 71.35-34 72.6-34L72.6-34Q74.4-34 75.05-31.8 75.7-29.6 75.7-25.3L75.7-25.3Q75.7-20.15 75.1-16.32 74.5-12.5 74.05-10.5L74.05-10.5 74.25-10.4Q75.25-12.85 76.8-15.13 78.35-17.4 80.37-18.9 82.4-20.4 84.8-20.4L84.8-20.4Q87.15-20.4 88.42-19 89.7-17.6 89.7-15.65L89.7-15.65Q89.7-13.35 88.05-11.55 86.4-9.75 83.75-8.55L83.75-8.55Q84.4-6.85 85.6-5.88 86.8-4.9 88.65-4.9L88.65-4.9Q89.25-4.9 89.65-5L89.65-5Q90.3-5.15 90.3-3.75L90.3-3.75Q90.3-2.95 90-1.95 89.7-0.95 88.82-0.23 87.95 0.5 86.2 0.5L86.2 0.5Q83.85 0.5 82.37-0.88 80.9-2.25 80.07-4.28 79.25-6.3 78.8-8.3L78.8-8.3Q78.4-10.15 80.05-10.25L80.05-10.25Q81.8-10.45 83-11.3 84.2-12.15 84.2-13.55L84.2-13.55Q84.2-15.15 82.65-15.15L82.65-15.15Q81.65-15.15 80.62-14.43 79.6-13.7 78.72-12.7 77.85-11.7 77.3-10.75L77.3-10.75Q76.55-9.45 76-8.2 75.45-6.95 75.1-5.7L75.1-5.7 75.1-3.7Q75.1-1.85 74.02-0.65 72.95 0.55 71.2 0.55ZM101.64 0.65L101.64 0.65Q97.84 0.65 95.72-1.53 93.59-3.7 93.59-7.6L93.59-7.6Q93.59-11.15 95.14-14.05 96.69-16.95 99.32-18.68 101.94-20.4 105.09-20.4L105.09-20.4Q108.09-20.4 109.89-18.93 111.69-17.45 111.69-15L111.69-15Q111.69-13.05 110.49-11.4 109.29-9.75 107.29-8.78 105.29-7.8 102.84-7.8L102.84-7.8Q99.84-7.8 97.94-9.15L97.94-9.15Q97.99-6.85 99.52-5.45 101.04-4.05 103.44-4.05L103.44-4.05Q104.89-4.05 106.42-4.58 107.94-5.1 109.04-6L109.04-6Q109.74-6.6 110.34-6.6L110.34-6.6Q110.84-6.6 111.17-6.28 111.49-5.95 111.49-5.45L111.49-5.45Q111.49-4.35 109.59-2.55L109.59-2.55Q106.24 0.65 101.64 0.65ZM102.39-11.1L102.39-11.1Q104.19-11.1 105.39-11.85 106.59-12.6 106.59-13.75L106.59-13.75Q106.59-14.7 105.79-15.23 104.99-15.75 103.59-15.75L103.59-15.75Q101.74-15.75 100.37-14.78 98.99-13.8 98.39-12.05L98.39-12.05Q99.09-11.6 100.19-11.35 101.29-11.1 102.39-11.1ZM130.44 13.8L130.44 13.8Q128.39 13.8 126.91 12.7 125.44 11.6 125.44 9.75L125.44 9.75Q125.44 8.3 126.31 7.28 127.19 6.25 128.49 6.25L128.49 6.25Q129.09 6.25 129.34 6.45 129.59 6.65 129.74 6.9L129.74 6.9Q130.14 7.55 130.66 8.03 131.19 8.5 132.09 8.5L132.09 8.5Q133.29 8.5 134.41 7.65 135.54 6.8 136.49 5.7L136.49 5.7Q137.34 4.75 138.54 2.98 139.74 1.2 140.94-1.05L140.94-1.05Q139.84-0.1 138.89 0.33 137.94 0.75 137.09 0.75L137.09 0.75Q136.04 0.75 135.04-0.03 134.04-0.8 133.79-2.95L133.79-2.95Q133.64-4.6 133.21-6.6 132.79-8.6 132.16-10.48 131.54-12.35 130.64-13.65L130.64-13.65Q130.29-14.25 129.84-14.55 129.39-14.85 128.54-14.95L128.54-14.95Q127.94-15 127.76-15.3 127.59-15.6 127.59-16.25L127.59-16.25Q127.59-18.05 128.59-19.15 129.59-20.25 131.29-20.25L131.29-20.25Q133.34-20.25 134.24-18.68 135.14-17.1 135.79-14.85L135.79-14.85Q136.04-13.95 136.31-12.48 136.59-11 136.81-9.3 137.04-7.6 137.14-6.05L137.14-6.05Q137.19-4.95 138.39-4.95L138.39-4.95Q139.99-4.95 141.44-5.95 142.89-6.95 143.81-8.55 144.74-10.15 144.74-11.9L144.74-11.9Q144.74-12.9 144.49-13.7 144.24-14.5 143.64-15.1L143.64-15.1Q143.14-15.7 142.84-16.07 142.54-16.45 142.54-16.95L142.54-16.95Q142.54-17.8 143.34-18.55 144.14-19.3 145.26-19.8 146.39-20.3 147.24-20.3L147.24-20.3Q148.74-20.3 149.24-18.88 149.74-17.45 149.49-15.75L149.49-15.75Q149.19-13.4 148.29-10.2 147.39-7 145.96-3.5 144.54 0 142.71 3.28 140.89 6.55 138.84 9L138.84 9Q137.09 11.15 134.94 12.48 132.79 13.8 130.44 13.8ZM161.09 0.65L161.09 0.65Q157.64 0.65 155.56-1.23 153.49-3.1 153.49-6.75L153.49-6.75Q153.49-8.45 153.96-10.05 154.44-11.65 155.24-13.05L155.24-13.05Q154.44-12.55 154.04-12.55L154.04-12.55Q153.44-12.55 153.21-13.23 152.99-13.9 152.99-14.55L152.99-14.55Q152.99-15.7 153.46-16.38 153.94-17.05 154.39-17.4L154.39-17.4Q155.44-18.3 157.69-19.38 159.94-20.45 163.09-20.45L163.09-20.45Q167.39-20.45 169.76-18.05 172.14-15.65 172.14-11.35L172.14-11.35Q172.14-8 170.74-5.28 169.34-2.55 166.86-0.95 164.39 0.65 161.09 0.65ZM162.64-4.45L162.64-4.45Q165.14-4.45 166.86-6.03 168.59-7.6 168.59-10.2L168.59-10.2Q168.59-12.9 166.84-14.05 165.09-15.2 162.79-15.2L162.79-15.2Q161.74-15.2 160.89-15 160.04-14.8 159.29-14.5L159.29-14.5Q158.59-13.5 158.04-12.25 157.49-11 157.49-9.5L157.49-9.5Q157.49-7 158.99-5.73 160.49-4.45 162.64-4.45ZM182.23 0.65L182.23 0.65Q179.73 0.65 178.36-0.8 176.98-2.25 176.98-5L176.98-5Q176.98-6.95 177.53-9L177.53-9Q177.78-9.85 177.93-10.7 178.08-11.55 178.08-12.4L178.08-12.4Q178.08-14.6 176.73-15.25L176.73-15.25Q175.43-15.95 175.43-16.75L175.43-16.75Q175.43-17.55 176.11-18.35 176.78-19.15 177.78-19.68 178.78-20.2 179.78-20.2L179.78-20.2Q182.63-20.2 182.63-15.55L182.63-15.55Q182.63-14.05 182.41-12.78 182.18-11.5 181.88-10.35L181.88-10.35Q181.68-9.55 181.56-8.75 181.43-7.95 181.43-7.35L181.43-7.35Q181.43-4.85 183.88-4.85L183.88-4.85Q186.18-4.85 188.18-7.3 190.18-9.75 191.48-14.15L191.48-14.15 191.43-15.1Q191.33-17.6 192.31-18.9 193.28-20.2 195.18-20.2L195.18-20.2Q196.83-20.2 196.83-19.15L196.83-19.15Q196.83-18.8 196.71-18.25 196.58-17.7 196.33-16.95L196.33-16.95Q195.83-15.1 195.48-13.03 195.13-10.95 195.13-9.2L195.13-9.2Q195.13-7.25 195.73-5.98 196.33-4.7 197.98-4.25L197.98-4.25Q198.43-4.2 198.71-3.98 198.98-3.75 198.98-3.05L198.98-3.05Q198.98-1.85 197.98-0.7 196.98 0.45 195.08 0.45L195.08 0.45Q191.43 0.45 191.43-4.7L191.43-4.7Q191.43-5.6 191.58-7.4L191.58-7.4 191.48-7.45Q188.33 0.65 182.23 0.65ZM204.83 0.55L204.83 0.55Q204.03 0.55 203.56 0.28 203.08 0 203.23-0.65L203.23-0.65Q203.78-2.8 204.16-5.03 204.53-7.25 204.53-9.3L204.53-9.3Q204.53-11.95 204.21-13.18 203.88-14.4 203.33-14.88 202.78-15.35 201.98-15.6L201.98-15.6Q201.63-15.75 201.36-16 201.08-16.25 201.08-16.7L201.08-16.7Q201.08-17.4 201.63-18.25 202.18-19.1 203.18-19.73 204.18-20.35 205.48-20.35L205.48-20.35Q207.18-20.35 207.86-19.18 208.53-18 208.53-16.1L208.53-16.1Q209.43-18.1 210.76-19.28 212.08-20.45 214.08-20.45L214.08-20.45Q215.43-20.45 216.33-19.85 217.23-19.25 217.23-17.9L217.23-17.9Q217.23-16.55 216.36-15.38 215.48-14.2 214.58-14.2L214.58-14.2Q214.43-14.2 214.23-14.25 214.03-14.3 213.88-14.5L213.88-14.5Q213.23-15.3 212.28-15.3L212.28-15.3Q210.83-15.3 209.73-13.4 208.63-11.5 208.53-8.15L208.53-8.15Q208.58-6.9 208.61-5.6 208.63-4.3 208.63-3.7L208.63-3.7Q208.63-1.85 207.61-0.65 206.58 0.55 204.83 0.55ZM233.78 9.6L233.78 9.6Q232.83 9.6 232.33 9.13 231.83 8.65 231.88 7.4L231.88 7.4Q231.88 6.65 232 4.73 232.13 2.8 232.35 0.18 232.58-2.45 232.85-5.3 233.13-8.15 233.38-10.8 233.63-13.45 233.83-15.35L233.83-15.35Q233.33-15.3 232.88-15.28 232.43-15.25 231.98-15.15L231.98-15.15Q231.48-15.05 231.23-15.05L231.23-15.05Q230.63-15.05 230.43-15.78 230.23-16.5 230.23-17.15L230.23-17.15Q230.23-17.9 230.45-18.4 230.68-18.9 231.43-19.2L231.43-19.2Q231.88-19.4 232.6-19.55 233.33-19.7 234.13-19.8L234.13-19.8Q234.38-22.75 234.9-25.4 235.43-28.05 236.53-29.9L236.53-29.9Q237.68-31.8 239.65-32.9 241.63-34 243.68-34L243.68-34Q245.18-34 246.5-33.43 247.83-32.85 248.65-31.83 249.48-30.8 249.48-29.5L249.48-29.5Q249.48-28.55 249-27.95 248.53-27.35 247.93-27.35L247.93-27.35Q247.68-27.35 247.38-27.45 247.08-27.55 246.78-27.65L246.78-27.65Q246.23-27.9 245.4-28.08 244.58-28.25 243.63-28.25L243.63-28.25Q241.68-28.25 240.55-27.2 239.43-26.15 238.85-24.33 238.28-22.5 237.93-20.1L237.93-20.1Q238.98-20.2 240.18-20.3 241.38-20.4 242.13-20.4L242.13-20.4Q243.33-20.4 244-20.03 244.68-19.65 244.68-18.6L244.68-18.6Q244.68-17.95 244.45-17.07 244.23-16.2 243.78-15.53 243.33-14.85 242.73-14.85L242.73-14.85Q242.48-14.85 241.88-15L241.88-15Q241.23-15.1 240.18-15.25 239.13-15.4 237.53-15.45L237.53-15.45Q237.33-13.3 237.2-10.68 237.08-8.05 237.08-5.15L237.08-5.15Q237.08-2 237.28 0.3 237.48 2.6 237.68 4.05L237.68 4.05Q237.78 4.7 237.83 5.2 237.88 5.7 237.88 6L237.88 6Q237.88 7.45 237.18 8.22 236.48 9 235.53 9.3 234.58 9.6 233.78 9.6ZM252.37 0.65L252.37 0.65Q249.87 0.65 248.5-0.8 247.12-2.25 247.12-5L247.12-5Q247.12-6.95 247.67-9L247.67-9Q247.92-9.85 248.07-10.7 248.22-11.55 248.22-12.4L248.22-12.4Q248.22-14.6 246.87-15.25L246.87-15.25Q245.57-15.95 245.57-16.75L245.57-16.75Q245.57-17.55 246.25-18.35 246.92-19.15 247.92-19.68 248.92-20.2 249.92-20.2L249.92-20.2Q252.77-20.2 252.77-15.55L252.77-15.55Q252.77-14.05 252.55-12.78 252.32-11.5 252.02-10.35L252.02-10.35Q251.82-9.55 251.7-8.75 251.57-7.95 251.57-7.35L251.57-7.35Q251.57-4.85 254.02-4.85L254.02-4.85Q256.32-4.85 258.32-7.3 260.32-9.75 261.62-14.15L261.62-14.15 261.57-15.1Q261.47-17.6 262.45-18.9 263.42-20.2 265.32-20.2L265.32-20.2Q266.97-20.2 266.97-19.15L266.97-19.15Q266.97-18.8 266.85-18.25 266.72-17.7 266.47-16.95L266.47-16.95Q265.97-15.1 265.62-13.03 265.27-10.95 265.27-9.2L265.27-9.2Q265.27-7.25 265.87-5.98 266.47-4.7 268.12-4.25L268.12-4.25Q268.57-4.2 268.85-3.98 269.12-3.75 269.12-3.05L269.12-3.05Q269.12-1.85 268.12-0.7 267.12 0.45 265.22 0.45L265.22 0.45Q261.57 0.45 261.57-4.7L261.57-4.7Q261.57-5.6 261.72-7.4L261.72-7.4 261.62-7.45Q258.47 0.65 252.37 0.65ZM279.27 0.65L279.27 0.65Q276.22 0.65 274.9-1.38 273.57-3.4 273.57-6.6L273.57-6.6Q273.57-7.75 273.7-8.85 273.82-9.95 273.97-11.05L273.97-11.05Q274.12-12.15 274.27-13.2 274.42-14.25 274.52-15.2L274.52-15.2Q273.47-14.9 272.42-14.9L272.42-14.9Q271.32-14.9 271.32-15.8L271.32-15.8Q271.32-16.75 272.17-18.13 273.02-19.5 274.3-20.85 275.57-22.2 276.85-23.13 278.12-24.05 279.02-24.05L279.02-24.05Q280.12-24.05 280.12-22.15L280.12-22.15Q280.12-21.65 280.05-21.13 279.97-20.6 279.87-20.05L279.87-20.05Q280.82-20.25 281.8-20.4 282.77-20.55 283.67-20.55L283.67-20.55Q284.82-20.55 285.45-20.15 286.07-19.75 286.07-18.6L286.07-18.6Q286.07-17.4 285.5-16.2 284.92-15 284.22-15L284.22-15Q284.07-15 283.72-15.05 283.37-15.1 282.87-15.2L282.87-15.2Q282.22-15.35 281.22-15.5 280.22-15.65 278.82-15.65L278.82-15.65Q278.47-14.1 278.2-12.48 277.92-10.85 277.92-9.55L277.92-9.55Q277.92-6.65 279.37-5.6 280.82-4.55 283.57-4.55L283.57-4.55Q284.42-4.55 284.77-4.28 285.12-4 285.12-3.3L285.12-3.3Q285.12-1.65 283.42-0.5 281.72 0.65 279.27 0.65ZM294.97 0.65L294.97 0.65Q292.47 0.65 291.09-0.8 289.72-2.25 289.72-5L289.72-5Q289.72-6.95 290.27-9L290.27-9Q290.52-9.85 290.67-10.7 290.82-11.55 290.82-12.4L290.82-12.4Q290.82-14.6 289.47-15.25L289.47-15.25Q288.17-15.95 288.17-16.75L288.17-16.75Q288.17-17.55 288.84-18.35 289.52-19.15 290.52-19.68 291.52-20.2 292.52-20.2L292.52-20.2Q295.37-20.2 295.37-15.55L295.37-15.55Q295.37-14.05 295.14-12.78 294.92-11.5 294.62-10.35L294.62-10.35Q294.42-9.55 294.29-8.75 294.17-7.95 294.17-7.35L294.17-7.35Q294.17-4.85 296.62-4.85L296.62-4.85Q298.92-4.85 300.92-7.3 302.92-9.75 304.22-14.15L304.22-14.15 304.17-15.1Q304.07-17.6 305.04-18.9 306.02-20.2 307.92-20.2L307.92-20.2Q309.57-20.2 309.57-19.15L309.57-19.15Q309.57-18.8 309.44-18.25 309.32-17.7 309.07-16.95L309.07-16.95Q308.57-15.1 308.22-13.03 307.87-10.95 307.87-9.2L307.87-9.2Q307.87-7.25 308.47-5.98 309.07-4.7 310.72-4.25L310.72-4.25Q311.17-4.2 311.44-3.98 311.72-3.75 311.72-3.05L311.72-3.05Q311.72-1.85 310.72-0.7 309.72 0.45 307.82 0.45L307.82 0.45Q304.17 0.45 304.17-4.7L304.17-4.7Q304.17-5.6 304.32-7.4L304.32-7.4 304.22-7.45Q301.07 0.65 294.97 0.65ZM317.57 0.55L317.57 0.55Q316.77 0.55 316.29 0.28 315.82 0 315.97-0.65L315.97-0.65Q316.52-2.8 316.89-5.03 317.27-7.25 317.27-9.3L317.27-9.3Q317.27-11.95 316.94-13.18 316.62-14.4 316.07-14.88 315.52-15.35 314.72-15.6L314.72-15.6Q314.37-15.75 314.09-16 313.82-16.25 313.82-16.7L313.82-16.7Q313.82-17.4 314.37-18.25 314.92-19.1 315.92-19.73 316.92-20.35 318.22-20.35L318.22-20.35Q319.92-20.35 320.59-19.18 321.27-18 321.27-16.1L321.27-16.1Q322.17-18.1 323.49-19.28 324.82-20.45 326.82-20.45L326.82-20.45Q328.17-20.45 329.07-19.85 329.97-19.25 329.97-17.9L329.97-17.9Q329.97-16.55 329.09-15.38 328.22-14.2 327.32-14.2L327.32-14.2Q327.17-14.2 326.97-14.25 326.77-14.3 326.62-14.5L326.62-14.5Q325.97-15.3 325.02-15.3L325.02-15.3Q323.57-15.3 322.47-13.4 321.37-11.5 321.27-8.15L321.27-8.15Q321.32-6.9 321.34-5.6 321.37-4.3 321.37-3.7L321.37-3.7Q321.37-1.85 320.34-0.65 319.32 0.55 317.57 0.55ZM338.41 0.65L338.41 0.65Q334.61 0.65 332.49-1.53 330.36-3.7 330.36-7.6L330.36-7.6Q330.36-11.15 331.91-14.05 333.46-16.95 336.09-18.68 338.71-20.4 341.86-20.4L341.86-20.4Q344.86-20.4 346.66-18.93 348.46-17.45 348.46-15L348.46-15Q348.46-13.05 347.26-11.4 346.06-9.75 344.06-8.78 342.06-7.8 339.61-7.8L339.61-7.8Q336.61-7.8 334.71-9.15L334.71-9.15Q334.76-6.85 336.29-5.45 337.81-4.05 340.21-4.05L340.21-4.05Q341.66-4.05 343.19-4.58 344.71-5.1 345.81-6L345.81-6Q346.51-6.6 347.11-6.6L347.11-6.6Q347.61-6.6 347.94-6.28 348.26-5.95 348.26-5.45L348.26-5.45Q348.26-4.35 346.36-2.55L346.36-2.55Q343.01 0.65 338.41 0.65ZM339.16-11.1L339.16-11.1Q340.96-11.1 342.16-11.85 343.36-12.6 343.36-13.75L343.36-13.75Q343.36-14.7 342.56-15.23 341.76-15.75 340.36-15.75L340.36-15.75Q338.51-15.75 337.14-14.78 335.76-13.8 335.16-12.05L335.16-12.05Q335.86-11.6 336.96-11.35 338.06-11.1 339.16-11.1ZM372.86 0.7L372.86 0.7Q371.51 0.7 370.53-0.13 369.56-0.95 369.36-3.2L369.36-3.2Q369.26-4.9 368.93-6.95 368.61-9 368.11-10.85 367.61-12.7 366.96-13.75L366.96-13.75Q366.61-14.3 366.18-14.58 365.76-14.85 364.91-14.95L364.91-14.95Q364.36-15 364.16-15.3 363.96-15.6 363.96-16.25L363.96-16.25Q363.96-18.3 365.08-19.28 366.21-20.25 367.66-20.25L367.66-20.25Q369.16-20.25 370.16-19.28 371.16-18.3 371.71-16.7 372.26-15.1 372.48-13.18 372.71-11.25 372.71-9.3L372.71-9.3Q372.71-8.5 372.68-7.63 372.66-6.75 372.66-6.15L372.66-6.15Q372.66-5.6 372.88-5.3 373.11-5 373.76-5L373.76-5Q374.56-5 375.61-5.48 376.66-5.95 377.68-6.85 378.71-7.75 379.38-8.97 380.06-10.2 380.06-11.7L380.06-11.7Q380.06-12.55 379.78-13.5 379.51-14.45 378.91-15.1L378.91-15.1Q378.31-15.75 378.03-16.13 377.76-16.5 377.76-17L377.76-17Q377.76-17.9 378.58-18.65 379.41-19.4 380.53-19.85 381.66-20.3 382.51-20.3L382.51-20.3Q383.96-20.3 384.36-19.1 384.76-17.9 384.76-16.45L384.76-16.45Q384.76-13.7 383.76-10.7 382.76-7.7 381.06-5.1 379.36-2.5 377.23-0.9 375.11 0.7 372.86 0.7ZM392.36 0.5L392.36 0.5Q390.91 0.5 390.21-0.3 389.51-1.1 389.51-3.1L389.51-3.1Q389.51-4.05 389.66-5.55 389.81-7.05 390.01-8.8L390.01-8.8Q390.31-10.95 390.53-13.3 390.76-15.65 390.76-17.8L390.76-17.8Q390.76-20.85 390.48-24.13 390.21-27.4 388.96-29.85L388.96-29.85Q388.51-30.85 388.51-31.3L388.51-31.3Q388.51-31.95 389.08-32.55 389.66-33.15 390.51-33.58 391.36-34 392.16-34L392.16-34Q393.46-34 394.11-32.83 394.76-31.65 394.96-29.63 395.16-27.6 395.16-25L395.16-25Q395.16-21.05 394.83-18.15 394.51-15.25 394.21-13.05L394.21-13.05Q394.01-11.6 393.83-10.3 393.66-9 393.66-7.95L393.66-7.95Q393.66-6.2 394.23-5.43 394.81-4.65 396.11-3.9L396.11-3.9Q396.46-3.7 396.63-3.53 396.81-3.35 396.81-3L396.81-3Q396.81-2.6 396.41-1.75 396.01-0.9 395.03-0.2 394.06 0.5 392.36 0.5ZM407.95 0.65L407.95 0.65Q404.5 0.65 402.43-1.23 400.35-3.1 400.35-6.75L400.35-6.75Q400.35-8.45 400.83-10.05 401.3-11.65 402.1-13.05L402.1-13.05Q401.3-12.55 400.9-12.55L400.9-12.55Q400.3-12.55 400.08-13.23 399.85-13.9 399.85-14.55L399.85-14.55Q399.85-15.7 400.33-16.38 400.8-17.05 401.25-17.4L401.25-17.4Q402.3-18.3 404.55-19.38 406.8-20.45 409.95-20.45L409.95-20.45Q414.25-20.45 416.63-18.05 419-15.65 419-11.35L419-11.35Q419-8 417.6-5.28 416.2-2.55 413.73-0.95 411.25 0.65 407.95 0.65ZM409.5-4.45L409.5-4.45Q412-4.45 413.73-6.03 415.45-7.6 415.45-10.2L415.45-10.2Q415.45-12.9 413.7-14.05 411.95-15.2 409.65-15.2L409.65-15.2Q408.6-15.2 407.75-15 406.9-14.8 406.15-14.5L406.15-14.5Q405.45-13.5 404.9-12.25 404.35-11 404.35-9.5L404.35-9.5Q404.35-7 405.85-5.73 407.35-4.45 409.5-4.45ZM429.1 13.8L429.1 13.8Q425.35 13.8 423.15 12.25 420.95 10.7 420.95 8.25L420.95 8.25Q420.95 6.45 422.08 5.05 423.2 3.65 425.05 3.65L425.05 3.65Q426.1 3.65 426.1 4.25L426.1 4.25Q426.1 4.6 425.98 5.05 425.85 5.5 425.85 5.95L425.85 5.95Q425.85 7.35 427.45 8.03 429.05 8.7 431.3 8.7L431.3 8.7Q432.7 8.7 434.15 8.4 435.6 8.1 436.58 7.48 437.55 6.85 437.55 5.8L437.55 5.8Q437.55 4.65 436.4 4.1 435.25 3.55 433.5 3.28 431.75 3 429.93 2.78 428.1 2.55 426.8 2.05L426.8 2.05Q425.15 1.5 424.35 0.7 423.55-0.1 423.55-1.35L423.55-1.35Q423.55-3.7 426.4-5.1L426.4-5.1Q424.75-5.95 423.93-7.5 423.1-9.05 423.1-10.95L423.1-10.95Q423.1-13.4 424.38-15.55 425.65-17.7 428.18-19.07 430.7-20.45 434.5-20.45L434.5-20.45Q436.2-20.45 437.95-20.13 439.7-19.8 440.88-18.93 442.05-18.05 442.05-16.4L442.05-16.4Q442.05-15.8 441.8-15.08 441.55-14.35 440.85-14.35L440.85-14.35Q440.55-14.35 440.05-14.48 439.55-14.6 439.15-14.7L439.15-14.7Q439.25-14.2 439.33-13.6 439.4-13 439.4-12.35L439.4-12.35Q439.4-9.4 437.4-7.03 435.4-4.65 431.55-4.2L431.55-4.2Q430.15-4.1 429.48-3.88 428.8-3.65 428.8-3.1L428.8-3.1Q428.8-2.6 429.4-2.38 430-2.15 430.95-2.05L430.95-2.05Q434-1.8 436.35-1.2 438.7-0.6 440.03 0.73 441.35 2.05 441.35 4.5L441.35 4.5Q441.35 7.35 439.68 9.43 438 11.5 435.2 12.65 432.4 13.8 429.1 13.8ZM431-8.55L431-8.55Q433.3-8.55 434.6-9.8 435.9-11.05 435.9-13.05L435.9-13.05Q435.9-13.6 435.8-14.18 435.7-14.75 435.6-15.15L435.6-15.15Q434.8-15.4 434.05-15.48 433.3-15.55 432.6-15.55L432.6-15.55Q429.95-15.55 428.45-14.55 426.95-13.55 426.95-11.8L426.95-11.8Q426.95-10.25 428.05-9.4 429.15-8.55 431-8.55ZM451.1 0.65L451.1 0.65Q449.25 0.65 447.65 0.1 446.05-0.45 445.05-1.45 444.05-2.45 444.05-3.85L444.05-3.85Q444.05-4.6 444.42-5.28 444.8-5.95 445.65-5.95L445.65-5.95Q446.1-5.95 446.6-5.7L446.6-5.7Q447.5-5.2 448.9-4.78 450.3-4.35 451.85-4.35L451.85-4.35Q453.6-4.35 454.95-4.85 456.3-5.35 456.3-6.25L456.3-6.25Q456.3-6.95 455.27-7.25 454.25-7.55 451.85-7.9L451.85-7.9Q450.2-8.2 448.65-8.6 447.1-9 446.1-9.98 445.1-10.95 445.1-12.85L445.1-12.85Q445.1-14.7 446.12-16.43 447.15-18.15 449.2-19.3 451.25-20.45 454.2-20.45L454.2-20.45Q455.75-20.45 457.2-20.1 458.65-19.75 459.6-19.05 460.55-18.35 460.55-17.3L460.55-17.3Q460.55-16.4 459.92-15.65 459.3-14.9 458.47-14.43 457.65-13.95 457.1-13.95L457.1-13.95Q456.7-13.95 456.15-14.5L456.15-14.5Q455.3-15.2 454.27-15.48 453.25-15.75 452.25-15.75L452.25-15.75Q450.75-15.75 449.82-15.3 448.9-14.85 448.9-14.15L448.9-14.15Q448.9-13.5 449.67-13.1 450.45-12.7 451.6-12.53 452.75-12.35 453.8-12.2L453.8-12.2Q456.7-11.8 458.4-10.83 460.1-9.85 460.1-7.4L460.1-7.4Q460.1-5.5 459.02-3.63 457.95-1.75 455.92-0.55 453.9 0.65 451.1 0.65Z" opacity="1" transform="matrix(1,0,0,1,0,0)" fill="#556970" class="slogan-text-1" data-fill-palette-color="secondary" id="text-1"></path></svg></g></svg></g></svg></g></svg></g><g transform="matrix(1,0,0,1,86.55510257310453,0)"><svg viewBox="0 0 222.4097948537909 222.4097948537909" height="222.4097948537909" width="222.4097948537909"><g><svg></svg></g><g id="icon-0"><svg viewBox="0 0 222.4097948537909 222.4097948537909" height="222.4097948537909" width="222.4097948537909"><g><path d="M0 111.205c0-61.417 49.788-111.205 111.205-111.205 61.417 0 111.205 49.788 111.205 111.205 0 61.417-49.788 111.205-111.205 111.205-61.417 0-111.205-49.788-111.205-111.205zM111.205 214.09c56.822 0 102.886-46.063 102.885-102.885 0-56.822-46.063-102.886-102.885-102.886-56.822 0-102.886 46.063-102.886 102.886 0 56.822 46.063 102.886 102.886 102.885z" data-fill-palette-color="accent" fill="#3fa3ff" stroke="transparent"></path><ellipse rx="110.0928484526265" ry="110.0928484526265" cx="111.20489742689546" cy="111.20489742689546" fill="#3fa3ff" stroke="transparent" stroke-width="0" fill-opacity="1" data-fill-palette-color="accent"></ellipse></g><g transform="matrix(1,0,0,1,51.367741951900655,67.81296274212067)"><svg viewBox="0 0 119.6743109499896 86.78386936954955" height="86.78386936954955" width="119.6743109499896"><g><svg xmlns="http://www.w3.org/2000/svg" data-name="Ebene 1" viewBox="14.424 24.44 70.33000000000001 51.001000000000005" x="0" y="0" height="86.78386936954955" width="119.6743109499896" class="icon-dxe-0" data-fill-palette-color="quaternary" id="dxe-0"><g fill="#ffffff" data-fill-palette-color="quaternary"><path d="M75.1 56.137L71.98 59.256 76.31 63.584H36.6C27.373 63.584 19.866 55.794 19.866 46.218S27.373 28.852 36.6 28.852 53.336 36.642 53.336 46.218A17.8 17.8 0 0 1 49.696 57L49.316 57.495 52.779 61.335 53.334 60.716A21.65 21.65 0 0 0 58.778 46.218C58.778 34.007 49.036 24.44 36.6 24.44S14.424 34.007 14.424 46.218 24.165 67.995 36.601 67.995H76.31L71.98 72.325 75.1 75.441 81.634 68.908 81.636 68.91 84.754 65.788Z" fill="#ffffff" data-fill-palette-color="quaternary"></path><polygon points="31.795 32.869 27.985 34.792 35.38 49.444 35.386 49.47 46.181 47.13 45.482 43.908 38.167 45.494 31.795 32.869" fill="#ffffff" data-fill-palette-color="quaternary"></polygon></g></svg></g></svg></g></svg></g></svg></g><g></g></svg></g><defs></defs></svg><rect width="241.12464815149713" height="247.2" fill="none" stroke="none" visibility="hidden"></rect></g></svg></g></svg>